# xmcd
#
# Track frame offsets:
#  150
#  19365
#  31392
#  52762
#  72235
#  89232
#  111337
#  132190
#  156582
#  174122
#  190260
#  208410
#  223457
#  239330
#  259082
#
# Disc length: 3697 seconds
#
# Revision: 0
# Processed by: cddbd v1.4PL0 Copyright (c) Steve Scherf et al.
# Submitted via: AltoMP3_Maker 3.0
#
DISCID=e80e6f0f
DTITLE=Various Artist - RUFFHOUSE RECORDS Greatest Hits
DYEAR=1900
DGENRE=
TTITLE0=How I Could Just Kill A Man
TTITLE1=I Declare War
TTITLE2=Halftime
TTITLE3=Fu-Gee-La
TTITLE4=Ninety Nine (Flash The Message)
TTITLE5=Killing Me Softly With His Song
TTITLE6=Typical American
TTITLE7=Nappy Heads (Salaam Remmi Remix)
TTITLE8=Cheapskate
TTITLE9=Insane In The Brain
TTITLE10=Doo Wop (That Thing)
TTITLE11=Jump
TTITLE12=Gone Till November
TTITLE13=What'cha Wanna Do (Remix)
TTITLE14=Insane In The Brain
EXTD=
EXTT0=
EXTT1=
EXTT2=
EXTT3=
EXTT4=
EXTT5=
EXTT6=
EXTT7=
EXTT8=
EXTT9=
EXTT10=
EXTT11=
EXTT12=
EXTT13=
EXTT14=
PLAYORDER=
